<mxfile host="Electron" modified="2023-12-12T13:20:44.926Z" agent="Mozilla/5.0 (Windows NT 10.0; Win64; x64) AppleWebKit/537.36 (KHTML, like Gecko) draw.io/21.6.5 Chrome/114.0.5735.243 Electron/25.3.1 Safari/537.36" etag="uSdvnzrFZ8TDwJflvWpB" version="21.6.5" type="device">
  <diagram name="Page-1" id="pAg3hoomDAGDJe5h1ga_">
    <mxGraphModel dx="1404" dy="-2066" grid="1" gridSize="8" guides="1" tooltips="1" connect="1" arrows="1" fold="1" page="1" pageScale="1" pageWidth="2560" pageHeight="1440" background="#ffffff" math="0" shadow="0">
      <root>
        <mxCell id="0" />
        <mxCell id="1" parent="0" />
        <mxCell id="PS18jV6U4Z3O7HoKawhN-1" value="" style="endArrow=none;html=1;rounded=0;fontSize=12;startSize=3;endSize=3;strokeColor=#CCCCCC;" parent="1" edge="1">
          <mxGeometry width="50" height="50" relative="1" as="geometry">
            <mxPoint x="80" y="3064" as="sourcePoint" />
            <mxPoint x="80" y="2888" as="targetPoint" />
          </mxGeometry>
        </mxCell>
        <mxCell id="PS18jV6U4Z3O7HoKawhN-2" value="" style="endArrow=none;html=1;rounded=0;fontSize=12;startSize=3;endSize=3;strokeColor=#CCCCCC;" parent="1" edge="1">
          <mxGeometry width="50" height="50" relative="1" as="geometry">
            <mxPoint x="112" y="3064" as="sourcePoint" />
            <mxPoint x="112" y="2888" as="targetPoint" />
          </mxGeometry>
        </mxCell>
        <mxCell id="PS18jV6U4Z3O7HoKawhN-3" value="" style="endArrow=none;html=1;rounded=0;fontSize=12;startSize=3;endSize=3;strokeColor=#CCCCCC;" parent="1" edge="1">
          <mxGeometry width="50" height="50" relative="1" as="geometry">
            <mxPoint x="144" y="3064" as="sourcePoint" />
            <mxPoint x="144" y="2888" as="targetPoint" />
          </mxGeometry>
        </mxCell>
        <mxCell id="PS18jV6U4Z3O7HoKawhN-4" value="" style="endArrow=none;html=1;rounded=0;fontSize=12;startSize=3;endSize=3;strokeColor=#CCCCCC;" parent="1" edge="1">
          <mxGeometry width="50" height="50" relative="1" as="geometry">
            <mxPoint x="176" y="3064" as="sourcePoint" />
            <mxPoint x="176" y="2888" as="targetPoint" />
          </mxGeometry>
        </mxCell>
        <mxCell id="PS18jV6U4Z3O7HoKawhN-5" value="" style="endArrow=none;html=1;rounded=0;fontSize=12;startSize=3;endSize=3;strokeColor=#CCCCCC;" parent="1" edge="1">
          <mxGeometry width="50" height="50" relative="1" as="geometry">
            <mxPoint x="208" y="3064" as="sourcePoint" />
            <mxPoint x="208" y="2888" as="targetPoint" />
          </mxGeometry>
        </mxCell>
        <mxCell id="PS18jV6U4Z3O7HoKawhN-6" value="" style="endArrow=none;html=1;rounded=0;fontSize=12;startSize=3;endSize=3;strokeColor=#CCCCCC;" parent="1" edge="1">
          <mxGeometry width="50" height="50" relative="1" as="geometry">
            <mxPoint x="240" y="3064" as="sourcePoint" />
            <mxPoint x="240" y="2888" as="targetPoint" />
          </mxGeometry>
        </mxCell>
        <mxCell id="PS18jV6U4Z3O7HoKawhN-7" value="" style="endArrow=none;html=1;rounded=0;fontSize=12;startSize=3;endSize=3;strokeColor=#CCCCCC;" parent="1" edge="1">
          <mxGeometry width="50" height="50" relative="1" as="geometry">
            <mxPoint x="272" y="3064" as="sourcePoint" />
            <mxPoint x="272" y="2888" as="targetPoint" />
          </mxGeometry>
        </mxCell>
        <mxCell id="PS18jV6U4Z3O7HoKawhN-10" value="x" style="rounded=0;whiteSpace=wrap;html=1;fontSize=8;strokeColor=#000000;strokeWidth=1;fillColor=#F19C99;" parent="1" vertex="1">
          <mxGeometry x="64" y="2936" width="16" height="16" as="geometry" />
        </mxCell>
        <mxCell id="PS18jV6U4Z3O7HoKawhN-16" value="clock" style="text;html=1;strokeColor=none;fillColor=none;align=right;verticalAlign=middle;whiteSpace=wrap;rounded=0;fontSize=8;" parent="1" vertex="1">
          <mxGeometry x="16" y="2904" width="32" height="16" as="geometry" />
        </mxCell>
        <mxCell id="PS18jV6U4Z3O7HoKawhN-18" value="vld" style="text;html=1;strokeColor=none;fillColor=none;align=right;verticalAlign=middle;whiteSpace=wrap;rounded=0;fontSize=8;" parent="1" vertex="1">
          <mxGeometry x="16" y="2936" width="32" height="16" as="geometry" />
        </mxCell>
        <mxCell id="PS18jV6U4Z3O7HoKawhN-19" value="data" style="text;html=1;strokeColor=none;fillColor=none;align=right;verticalAlign=middle;whiteSpace=wrap;rounded=0;fontSize=8;" parent="1" vertex="1">
          <mxGeometry x="16" y="3032" width="32" height="16" as="geometry" />
        </mxCell>
        <mxCell id="PS18jV6U4Z3O7HoKawhN-20" value="" style="endArrow=none;html=1;rounded=0;fontSize=8;startSize=3;endSize=3;strokeColor=#000000;" parent="1" edge="1">
          <mxGeometry width="50" height="50" relative="1" as="geometry">
            <mxPoint x="64" y="2920" as="sourcePoint" />
            <mxPoint x="288" y="2904" as="targetPoint" />
            <Array as="points">
              <mxPoint x="80" y="2920" />
              <mxPoint x="80" y="2904" />
              <mxPoint x="96" y="2904" />
              <mxPoint x="96" y="2920" />
              <mxPoint x="112" y="2920" />
              <mxPoint x="112" y="2904" />
              <mxPoint x="128" y="2904" />
              <mxPoint x="128" y="2920" />
              <mxPoint x="144" y="2920" />
              <mxPoint x="144" y="2904" />
              <mxPoint x="160" y="2904" />
              <mxPoint x="160" y="2920" />
              <mxPoint x="176" y="2920" />
              <mxPoint x="176" y="2904" />
              <mxPoint x="192" y="2904" />
              <mxPoint x="192" y="2920" />
              <mxPoint x="208" y="2920" />
              <mxPoint x="208" y="2904" />
              <mxPoint x="224" y="2904" />
              <mxPoint x="224" y="2920" />
              <mxPoint x="240" y="2920" />
              <mxPoint x="240" y="2904" />
              <mxPoint x="256" y="2904" />
              <mxPoint x="256" y="2920" />
              <mxPoint x="272" y="2920" />
              <mxPoint x="272" y="2904" />
            </Array>
          </mxGeometry>
        </mxCell>
        <mxCell id="PS18jV6U4Z3O7HoKawhN-21" value="D0" style="rounded=0;whiteSpace=wrap;html=1;fontSize=8;strokeColor=#000000;strokeWidth=1;fillColor=#FFFFFF;" parent="1" vertex="1">
          <mxGeometry x="208" y="3032" width="32" height="16" as="geometry" />
        </mxCell>
        <mxCell id="PS18jV6U4Z3O7HoKawhN-24" value="x" style="rounded=0;whiteSpace=wrap;html=1;fontSize=8;strokeColor=#000000;strokeWidth=1;fillColor=#F19C99;" parent="1" vertex="1">
          <mxGeometry x="64" y="2968" width="16" height="16" as="geometry" />
        </mxCell>
        <mxCell id="PS18jV6U4Z3O7HoKawhN-25" value="rdy" style="text;html=1;strokeColor=none;fillColor=none;align=right;verticalAlign=middle;whiteSpace=wrap;rounded=0;fontSize=8;" parent="1" vertex="1">
          <mxGeometry x="16" y="2968" width="32" height="16" as="geometry" />
        </mxCell>
        <mxCell id="PS18jV6U4Z3O7HoKawhN-28" value="xfer" style="text;html=1;strokeColor=none;fillColor=none;align=right;verticalAlign=middle;whiteSpace=wrap;rounded=0;fontSize=8;" parent="1" vertex="1">
          <mxGeometry x="16" y="3000" width="32" height="16" as="geometry" />
        </mxCell>
        <mxCell id="Q0VcwAhAzImNjjfF6pVO-1" value="" style="endArrow=none;html=1;rounded=0;" parent="1" edge="1">
          <mxGeometry width="50" height="50" relative="1" as="geometry">
            <mxPoint x="80" y="2952" as="sourcePoint" />
            <mxPoint x="288" y="2952" as="targetPoint" />
            <Array as="points">
              <mxPoint x="112" y="2952" />
              <mxPoint x="112" y="2936" />
              <mxPoint x="144" y="2936" />
              <mxPoint x="144" y="2952" />
              <mxPoint x="176" y="2952" />
              <mxPoint x="176" y="2936" />
              <mxPoint x="240" y="2936" />
              <mxPoint x="240" y="2952" />
            </Array>
          </mxGeometry>
        </mxCell>
        <mxCell id="Q0VcwAhAzImNjjfF6pVO-2" value="x" style="rounded=0;whiteSpace=wrap;html=1;fontSize=8;strokeColor=#000000;strokeWidth=1;fillColor=#F19C99;" parent="1" vertex="1">
          <mxGeometry x="64" y="3032" width="144" height="16" as="geometry" />
        </mxCell>
        <mxCell id="Q0VcwAhAzImNjjfF6pVO-3" value="" style="endArrow=none;html=1;rounded=0;" parent="1" edge="1">
          <mxGeometry width="50" height="50" relative="1" as="geometry">
            <mxPoint x="80" y="3016" as="sourcePoint" />
            <mxPoint x="288" y="3016" as="targetPoint" />
            <Array as="points">
              <mxPoint x="112" y="3016" />
              <mxPoint x="144" y="3016" />
              <mxPoint x="208" y="3016" />
              <mxPoint x="208" y="3000" />
              <mxPoint x="240" y="3000" />
              <mxPoint x="240" y="3016" />
            </Array>
          </mxGeometry>
        </mxCell>
        <mxCell id="Q0VcwAhAzImNjjfF6pVO-5" value="x" style="rounded=0;whiteSpace=wrap;html=1;fontSize=8;strokeColor=#000000;strokeWidth=1;fillColor=#F19C99;" parent="1" vertex="1">
          <mxGeometry x="240" y="3032" width="48" height="16" as="geometry" />
        </mxCell>
        <mxCell id="Q0VcwAhAzImNjjfF6pVO-6" value="x" style="rounded=0;whiteSpace=wrap;html=1;fontSize=8;strokeColor=#000000;strokeWidth=1;fillColor=#F19C99;" parent="1" vertex="1">
          <mxGeometry x="64" y="3000" width="16" height="16" as="geometry" />
        </mxCell>
        <mxCell id="Dkux8--GptGQ_LkvpTDu-1" value="" style="endArrow=none;html=1;rounded=0;" parent="1" edge="1">
          <mxGeometry width="50" height="50" relative="1" as="geometry">
            <mxPoint x="80" y="2984" as="sourcePoint" />
            <mxPoint x="288" y="2984" as="targetPoint" />
            <Array as="points">
              <mxPoint x="112" y="2984" />
              <mxPoint x="112" y="2968" />
              <mxPoint x="144" y="2968" />
              <mxPoint x="144" y="2984" />
              <mxPoint x="208" y="2984" />
              <mxPoint x="208" y="2968" />
              <mxPoint x="240" y="2968" />
              <mxPoint x="240" y="2984" />
            </Array>
          </mxGeometry>
        </mxCell>
      </root>
    </mxGraphModel>
  </diagram>
</mxfile>
